<svg xmlns="http://www.w3.org/2000/svg" width="24" height="24" viewBox="0 0 24 24" fill="none" stroke="currentColor" stroke-width="2" stroke-linecap="round" stroke-linejoin="round">
  <path d="M12 2a2 2 0 0 1 2 2c0 .74-.4 1.39-1 1.73V7h1a7 7 0 0 1 7 7h-1.5c-.28 0-.5.22-.5.5s.22.5.5.5H21v2h-1.5c-.28 0-.5.22-.5.5s.22.5.5.5H21a2 2 0 0 1-2 2h-2a2 2 0 0 1-2-2v-4h-2v4a2 2 0 0 1-2 2H9a2 2 0 0 1-2-2h1.5c.28 0 .5-.22.5-.5s-.22-.5-.5-.5H7v-2h1.5c.28 0 .5-.22.5-.5s-.22-.5-.5-.5H7a7 7 0 0 1 7-7h1V5.73c-.6-.34-1-.99-1-1.73a2 2 0 0 1 2-2z"/>
  <circle cx="9" cy="16" r="1"/>
  <circle cx="15" cy="16" r="1"/>
  <path d="M12 12v2"/>
</svg>
